#!OML:ASF E:\emotionWalksFemale\Project 1\Capture day 1\Session 1\Female1.ASF
:FULLY-SPECIFIED
:DEGREES
1296
root 9.75828 15.0285 -5.40746 179.617 -171.098 -183.79
lowerback 7.57195 2.70446 7.81986
upperback -6.39347 4.66313 0.339708
thorax -10.5835 1.66745 -4.76041
lowerneck -12.6083 -1.15983 -4.23541
upperneck 19.1292 -1.18008 2.28637
head 8.03785 -0.643292 1.33881
rclavicle -3.75827e-015 4.36084e-015
rhumerus -4.78866 24.2757 -81.4713
rradius 73.9707
rwrist -29.8257
rhand -0.356609 -44.9096
rfingers 7.12502
rthumb -154.751 106.741
lclavicle -3.75827e-015 4.36084e-015
lhumerus -59.2695 -2.2263 79.2996
lradius 32.8931
lwrist -7.45653
lhand -11.0598 325.679
lfingers 7.12502
lthumb 14.9629 -4.88125
rfemur 29.9786 7.29793 33.1062
rtibia -9.85972e-014
rfoot -7.37309 -6.62257
rtoes -14.0444
lfemur -30.9192 -6.76268 -19.3992
ltibia 30.4072
lfoot -20.2567 15.313
ltoes -9.58075
1297
root 9.7684 15.0213 -5.20848 179.64 -170.832 -183.655
lowerback 7.18189 2.71583 7.6869
upperback -6.5972 4.62567 0.236298
thorax -10.5832 1.65062 -4.77333
lowerneck -12.7122 -1.02548 -3.91343
upperneck 19.755 -1.09845 2.43608
head 8.26082 -0.569263 1.34744
rclavicle -2.75783e-014 2.47238e-015
rhumerus -7.34595 24.0923 -83.1072
rradius 72.7276
rwrist -29.7322
rhand -0.373062 -44.8887
rfingers 7.12502
rthumb -154.767 106.76
lclavicle -2.75783e-014 2.47238e-015
lhumerus -58.408 -2.51303 79.9825
lradius 33.5675
lwrist -6.43881
lhand -10.9935 325.713
lfingers 7.12502
lthumb 15.0267 -4.85235
rfemur 30.5937 7.30277 32.6896
rtibia 7.63333e-014
rfoot -5.9821 -5.94465
rtoes -13.9484
lfemur -29.3961 -7.7019 -19.585
ltibia 29.5548
lfoot -20.0135 17.3339
ltoes -8.94191
1298
root 9.77392 15.0488 -5.01561 179.701 -170.862 -183.309
lowerback 7.02962 2.65112 7.28674
upperback -6.91951 4.47624 0.0557052
thorax -10.8855 1.57828 -4.7277
lowerneck -12.7761 -0.955915 -3.8012
upperneck 20.5017 -1.12342 2.83771
head 8.52533 -0.534807 1.46612
rclavicle -5.28394e-014 -1.38652e-014
rhumerus -9.96963 23.7758 -84.7924
rradius 70.9121
rwrist -29.3669
rhand -0.201559 -45.1334
rfingers 7.12502
rthumb -154.603 106.538
lclavicle -5.28394e-014 -1.38652e-014
lhumerus -57.4365 -3.02551 80.73
lradius 34.0535
lwrist -5.55294
lhand -11.6849 324.73
lfingers 7.12502
lthumb 14.3606 -5.78685
rfemur 30.983 7.04623 32.0037
rtibia 8.90555e-014
rfoot -3.99586 -5.14557
rtoes -14.0238
lfemur -28.6179 -8.66321 -19.9769
ltibia 28.8539
lfoot -18.3332 19.8086
ltoes -9.30785
1299
root 9.77717 15.0924 -4.83513 179.969 -171.186 -182.886
lowerback 6.81973 2.53137 6.76215
upperback -7.29345 4.23017 -0.16637
thorax -11.228 1.46624 -4.64207
lowerneck -13.0725 -0.991923 -3.85957
upperneck 21.4012 -1.27394 3.30727
head 8.89446 -0.562114 1.62587
rclavicle 5.38458e-014 -2.18663e-015
rhumerus -12.9048 22.7375 -86.6425
rradius 68.7922
rwrist -28.1648
rhand -0.117678 -45.9981
rfingers 7.12502
rthumb -154.522 105.685
lclavicle 5.38458e-014 -2.18663e-015
lhumerus -55.9928 -3.76972 81.5741
lradius 34.3574
lwrist -4.53437
lhand -12.6775 323.44
lfingers 7.12502
lthumb 13.404 -7.01168
rfemur 31.0127 6.55033 31.173
rtibia -5.40694e-014
rfoot -1.31395 -4.25811
rtoes -13.379
lfemur -28.1421 -9.41471 -20.4886
ltibia 28.1982
lfoot -16.4082 20.6746
ltoes -5.01204
1300
root 9.79036 15.1307 -4.64013 179.913 -171.394 -182.072
lowerback 6.45584 2.50614 6.04192
upperback -7.49933 4.05653 -0.500007
thorax -11.276 1.41982 -4.56175
lowerneck -13.1061 -1.09996 -3.86734
upperneck 22.0559 -1.48616 3.51213
head 9.13617 -0.641908 1.67901
rclavicle -2.94698e-014 -1.2921e-014
rhumerus -16.0582 20.9886 -88.355
rradius 66.629
rwrist -26.3151
rhand -0.481599 -45.5684
rfingers 7.12502
rthumb -154.871 106.065
lclavicle -2.94698e-014 -1.2921e-014
lhumerus -54.4209 -4.62827 82.4878
lradius 34.8778
lwrist -3.5948
lhand -13.3583 322.109
lfingers 7.12502
lthumb 12.7478 -8.29977
rfemur 27.814 6.0551 29.8848
rtibia 7.14611
rfoot -1.6103 -3.54096
rtoes -11.3932
lfemur -27.1925 -9.51543 -21.6638
ltibia 27.4968
lfoot -14.6576 19.3248
ltoes 1.36436
1301
root 9.81176 15.1627 -4.43436 179.325 -171.476 -180.948
lowerback 6.22807 2.54774 5.2433
upperback -7.44724 3.96186 -0.893672
thorax -11.1021 1.42997 -4.51165
lowerneck -12.913 -1.25532 -4.14055
upperneck 22.3805 -1.72425 3.79113
head 9.22725 -0.748934 1.79669
rclavicle 2.47735e-014 3.97569e-015
rhumerus -19.099 18.8678 -89.6087
rradius 64.0938
rwrist -23.929
rhand 0.0326978 -48.3627
rfingers 7.12502
rthumb -154.378 103.341
lclavicle 2.47735e-014 3.97569e-015
lhumerus -52.7504 -5.57941 83.5481
lradius 35.7228
lwrist -2.84384
lhand -13.7947 321.06
lfingers 7.12502
lthumb 12.3271 -9.3234
rfemur 24.6809 5.61208 28.0574
rtibia 15.0642
rfoot -1.9679 -2.48362
rtoes -10.243
lfemur -25.5682 -9.63043 -23.2946
ltibia 26.7489
lfoot -13.1356 17.1879
ltoes 8.71502
1302
root 9.82454 15.1914 -4.26284 178.775 -172.292 -180.008
lowerback 6.41232 2.38708 4.4666
upperback -7.33609 3.63091 -1.20163
thorax -11.1433 1.31909 -4.37066
lowerneck -13.1271 -1.47625 -4.74648
upperneck 22.6297 -2.02115 4.32323
head 9.37944 -0.87968 2.05059
rclavicle 2.21893e-014 8.74653e-015
rhumerus -22.1217 16.6807 -90.4359
rradius 61.3603
rwrist -22.7263
rhand -1.73191 -48.1042
rfingers 7.12502
rthumb -156.069 103.367
lclavicle 2.21893e-014 8.74653e-015
lhumerus -50.8555 -6.83955 84.8392
lradius 37.097
lwrist -2.07519
lhand -14.7922 320.226
lfingers 7.12502
lthumb 11.3652 -10.102
rfemur 22.0764 3.84012 26.0474
rtibia 21.3431
rfoot -0.939336 -0.689759
rtoes -10.1615
lfemur -24.1066 -9.6708 -24.8196
ltibia 25.9916
lfoot -11.5742 14.2661
ltoes 17.8933
1303
root 9.83334 15.2149 -4.09212 178.179 -173.132 -179.409
lowerback 6.69144 2.26683 3.90787
upperback -7.17653 3.39164 -1.40154
thorax -11.1711 1.24089 -4.24928
lowerneck -13.5232 -1.736 -5.18694
upperneck 23.0358 -2.34143 4.58786
head 9.62267 -1.03413 2.1829
rclavicle -2.90723e-014 4.37326e-015
rhumerus -24.9097 14.4129 -90.6838
rradius 58.0892
rwrist -21.27
rhand -3.22078 -49.6304
rfingers 7.12502
rthumb -157.498 101.661
lclavicle -2.90723e-014 4.37326e-015
lhumerus -49.0483 -8.44763 86.2724
lradius 39.0443
lwrist -1.1169
lhand -16.3772 319.632
lfingers 7.12502
lthumb 9.83629 -10.6173
rfemur 19.7783 2.05465 24.3656
rtibia 27.145
rfoot 1.82121 0.980566
rtoes -9.03736
lfemur -22.5066 -9.83869 -25.923
ltibia 25.2175
lfoot -11.0411 14.075
ltoes 16.4236
1304
root 9.84037 15.2368 -3.92932 177.744 -173.955 -179.124
lowerback 6.97381 2.14887 3.51976
upperback -7.12865 3.19018 -1.45443
thorax -11.3231 1.16807 -4.07308
lowerneck -13.5978 -1.95808 -5.54119
upperneck 23.3747 -2.58628 4.62922
head 9.7769 -1.17455 2.23118
rclavicle -1.10325e-014 1.47101e-014
rhumerus -27.4609 12.692 -90.5457
rradius 54.2331
rwrist -20.1491
rhand -4.35807 -50.4895
rfingers 7.12502
rthumb -158.59 100.673
lclavicle -1.10325e-014 1.47101e-014
lhumerus -47.5282 -10.1526 87.743
lradius 41.4914
lwrist 0.591002
lhand -17.6649 319.048
lfingers 7.12502
lthumb 8.59377 -11.1472
rfemur 17.4354 0.299235 22.9947
rtibia 32.71
rfoot 4.38347 2.50452
rtoes -12.6716
lfemur -21.0827 -9.85365 -26.6377
ltibia 24.4639
lfoot -10.4112 14.4353
ltoes 11.6885
1305
root 9.84824 15.2587 -3.77517 177.468 -174.81 -179.004
lowerback 7.21982 2.024 3.22716
upperback -7.0955 2.99552 -1.43328
thorax -11.4671 1.09517 -3.86787
lowerneck -13.5839 -2.15266 -5.85875
upperneck 23.4567 -2.79618 4.66624
head 9.82193 -1.29642 2.2727
rclavicle -2.37548e-014 -2.52457e-014
rhumerus -29.9814 11.1712 -90.1497
rradius 50.4446
rwrist -19.2689
rhand -4.88791 -51.8177
rfingers 7.12502
rthumb -159.099 99.2883
lclavicle -2.37548e-014 -2.52457e-014
lhumerus -45.9582 -11.9475 89.1019
lradius 44.3225
lwrist 3.4375
lhand -17.773 318.625
lfingers 7.12502
lthumb 8.48944 -11.5657
rfemur 14.9647 -1.42137 21.8298
rtibia 38.1105
rfoot 7.7986 3.72216
rtoes -11.2814
lfemur -19.8438 -9.64483 -27.1936
ltibia 23.7309
lfoot -9.60835 14.127
ltoes 6.85292
1306
root 9.85653 15.2837 -3.62256 177.244 -175.814 -178.93
lowerback 7.46068 1.84615 2.94886
upperback -7.04447 2.73032 -1.4009
thorax -11.5917 0.989274 -3.64414
lowerneck -13.6392 -2.28317 -6.08499
upperneck 23.4771 -2.94173 4.74394
head 9.85397 -1.37441 2.32005
rclavicle 1.82385e-014 2.98177e-015
rhumerus -32.7346 9.81261 -89.6316
rradius 47.1545
rwrist -17.968
rhand -5.11775 -52.1999
rfingers 7.12502
rthumb -159.32 98.8819
lclavicle 1.82385e-014 2.98177e-015
lhumerus -44.4953 -13.8202 90.2783
lradius 47.7815
lwrist 6.45085
lhand -17.7233 318.693
lfingers 7.12502
lthumb 8.53733 -11.4993
rfemur 12.4646 -3.17113 20.804
rtibia 43.4639
rfoot 9.74311 4.78782
rtoes -13.139
lfemur -18.6019 -9.44176 -27.7378
ltibia 22.9442
lfoot -9.0154 12.9647
ltoes 5.28585
1307
root 9.86386 15.3172 -3.46817 176.969 -176.842 -178.851
lowerback 7.73634 1.61493 2.61736
upperback -6.93883 2.3903 -1.31418
thorax -11.6823 0.856889 -3.31604
lowerneck -13.6958 -2.32947 -6.44315
upperneck 23.4212 -2.946 4.87543
head 9.85346 -1.39203 2.42571
rclavicle 1.44864e-014 1.48095e-014
rhumerus -35.499 8.64041 -88.8655
rradius 44.4927
rwrist -16.5958
rhand -4.92371 -52.9806
rfingers 7.12502
rthumb -159.133 98.1216
lclavicle 1.44864e-014 1.48095e-014
lhumerus -43.4267 -15.1681 91.1007
lradius 52.1785
lwrist 9.10838
lhand -17.5648 318.376
lfingers 7.12502
lthumb 8.6903 -11.8227
rfemur 9.98084 -4.78503 19.9041
rtibia 48.8
rfoot 12.0986 5.49608
rtoes -10.4122
lfemur -17.1815 -9.34489 -28.2498
ltibia 21.9953
lfoot -8.69331 11.89
ltoes 4.68285
1308
root 9.87019 15.3527 -3.31757 176.668 -177.477 -178.776
lowerback 8.05114 1.47126 2.22513
upperback -6.73394 2.16403 -1.17374
thorax -11.6749 0.790463 -2.91072
lowerneck -13.9354 -2.36506 -6.87147
upperneck 23.223 -2.89854 5.00118
head 9.8351 -1.38918 2.545
rclavicle -1.14053e-014 -6.4605e-015
rhumerus -38.1613 8.00166 -88.2156
rradius 42.9693
rwrist -15.2765
rhand -4.86843 -52.8994
rfingers 7.12502
rthumb -159.08 98.2087
lclavicle -1.14053e-014 -6.4605e-015
lhumerus -42.4056 -16.3314 91.6427
lradius 57.0261
lwrist 11.6379
lhand -17.0669 317.87
lfingers 7.12502
lthumb 9.17083 -12.3492
rfemur 7.37024 -5.93796 19.1348
rtibia 54.13
rfoot 14.2137 5.84271
rtoes -8.45196
lfemur -15.579 -9.28911 -28.6476
ltibia 20.7613
lfoot -8.44868 11.4093
ltoes 2.90217
1309
root 9.87583 15.3916 -3.17247 176.508 -177.809 -178.714
lowerback 8.29823 1.40716 1.7605
upperback -6.58117 2.03781 -0.983526
thorax -11.6802 0.779134 -2.42598
lowerneck -13.9159 -2.35104 -7.23962
upperneck 22.7025 -2.81127 5.16034
head 9.64944 -1.35943 2.66695
rclavicle 5.80203e-015 2.18663e-015
rhumerus -40.9795 7.71696 -87.7043
rradius 41.9645
rwrist -14.061
rhand -5.64569 -50.8665
rfingers 7.12502
rthumb -159.827 100.161
lclavicle 5.80203e-015 2.18663e-015
lhumerus -41.4038 -17.6894 92.0641
lradius 61.9123
lwrist 13.3278
lhand -17.4771 317.987
lfingers 7.12502
lthumb 8.775 -12.2156
rfemur 4.44993 -6.7326 18.5354
rtibia 59.4644
rfoot 16.7325 5.72743
rtoes -6.50143
lfemur -13.9539 -9.45781 -28.9228
ltibia 19.1675
lfoot -8.23361 11.4605
ltoes 1.29946
